
<svg xmlns="http://www.w3.org/2000/svg" viewBox="0 0 40 40"><defs><clipPath id="a"><circle cx="20" cy="20" r="20" style="fill:none"/></clipPath></defs><g data-name="Capa 2"><g style="clip-path:url(#a)" data-name="Capa 1"><path d="M-20.47 13c0-3.81-.05-7.62 0-11.43a3.32 3.32 0 0 1 3.17-3h74.06A3.61 3.61 0 0 1 59.83-.1a2.66 2.66 0 0 1 .67 1.65v11.43a1 1 0 0 1-.79.29h-78.6c-.53 0-1.11.16-1.58-.27z" style="fill:#010101"/><path d="M-20.47 13h80.94v14.31a1.08 1.08 0 0 1-.81.25h-78.53c-.54 0-1.12.15-1.61-.25z" style="fill:#c7483d"/><path d="M-20.48 27.31h81c0 3.68.05 7.36 0 11a3.31 3.31 0 0 1-3.26 3.08H-16.6A3.71 3.71 0 0 1-19.93 40a2.87 2.87 0 0 1-.57-1.62c0-3.71.02-7.38.02-11.07z" style="fill:#fdce24"/></g></g></svg>